{
    "asset" : {
        "generator" : "Khronos glTF Blender I/O v3.2.40",
        "version" : "2.0"
    },
    "scene" : 0,
    "scenes" : [
        {
            "name" : "Scene",
            "nodes" : [
                0
            ]
        }
    ],
    "nodes" : [
        {
            "mesh" : 0,
            "name" : "\u0440\u0435\u0435\u0440\u0435",
            "rotation" : [
                0.5340198874473572,
                -0.005491009913384914,
                0.009643725119531155,
                0.8453992009162903
            ],
            "scale" : [
                1,
                2.0299999713897705,
                1
            ]
        }
    ],
    "meshes" : [
        {
            "name" : "\u0422\u0435\u043a\u0441\u0442",
            "primitives" : [
                {
                    "attributes" : {
                        "POSITION" : 0,
                        "NORMAL" : 1,
                        "TEXCOORD_0" : 2
                    },
                    "indices" : 3
                }
            ]
        }
    ],
    "accessors" : [
        {
            "bufferView" : 0,
            "componentType" : 5126,
            "count" : 900,
            "max" : [
                9.004000663757324,
                0.04999999701976776,
                0.009000000543892384
            ],
            "min" : [
                0.351000040769577,
                -0.04999999701976776,
                -0.6910000443458557
            ],
            "type" : "VEC3"
        },
        {
            "bufferView" : 1,
            "componentType" : 5126,
            "count" : 900,
            "type" : "VEC3"
        },
        {
            "bufferView" : 2,
            "componentType" : 5126,
            "count" : 900,
            "type" : "VEC2"
        },
        {
            "bufferView" : 3,
            "componentType" : 5123,
            "count" : 1680,
            "type" : "SCALAR"
        }
    ],
    "bufferViews" : [
        {
            "buffer" : 0,
            "byteLength" : 10800,
            "byteOffset" : 0
        },
        {
            "buffer" : 0,
            "byteLength" : 10800,
            "byteOffset" : 10800
        },
        {
            "buffer" : 0,
            "byteLength" : 7200,
            "byteOffset" : 21600
        },
        {
            "buffer" : 0,
            "byteLength" : 3360,
            "byteOffset" : 28800
        }
    ],
    "buffers" : [
        {
            "byteLength" : 32160,
            "uri" : "data:application/octet-stream;base64,"
        }
    ]
}
